{
	"asset":{
		"generator":"Khronos glTF Blender I/O v4.2.70",
		"version":"2.0"
	},
	"scene":0,
	"scenes":[
		{
			"name":"Scene",
			"nodes":[
				2
			]
		}
	],
	"nodes":[
		{
			"mesh":0,
			"name":"Booster",
			"rotation":[
				0.7071068286895752,
				0,
				0,
				0.7071067094802856
			],
			"scale":[
				0.24952538311481476,
				0.24952538311481476,
				0.8412185907363892
			],
			"translation":[
				0.41401195526123047,
				0.1453801542520523,
				-1.1091123819351196
			]
		},
		{
			"children":[
				0
			],
			"mesh":1,
			"name":"Ship",
			"scale":[
				1,
				0.29662370681762695,
				1
			]
		},
		{
			"children":[
				1
			],
			"name":"Center"
		}
	],
	"materials":[
		{
			"doubleSided":true,
			"name":"Material",
			"pbrMetallicRoughness":{
				"baseColorFactor":[
					0.800000011920929,
					0.800000011920929,
					0.800000011920929,
					1
				],
				"metallicFactor":0,
				"roughnessFactor":0.5
			}
		}
	],
	"meshes":[
		{
			"name":"Cylinder",
			"primitives":[
				{
					"attributes":{
						"POSITION":0,
						"NORMAL":1,
						"TEXCOORD_0":2
					},
					"indices":3
				}
			]
		},
		{
			"name":"Cube",
			"primitives":[
				{
					"attributes":{
						"POSITION":4,
						"NORMAL":5,
						"TEXCOORD_0":6
					},
					"indices":7,
					"material":0
				}
			]
		}
	],
	"accessors":[
		{
			"bufferView":0,
			"componentType":5126,
			"count":768,
			"max":[
				1,
				1,
				1
			],
			"min":[
				-4.318395614624023,
				-1,
				-1
			],
			"type":"VEC3"
		},
		{
			"bufferView":1,
			"componentType":5126,
			"count":768,
			"type":"VEC3"
		},
		{
			"bufferView":2,
			"componentType":5126,
			"count":768,
			"type":"VEC2"
		},
		{
			"bufferView":3,
			"componentType":5123,
			"count":1512,
			"type":"SCALAR"
		},
		{
			"bufferView":4,
			"componentType":5126,
			"count":135,
			"max":[
				2.520620346069336,
				1.9278346300125122,
				3.074425220489502
			],
			"min":[
				-2.520620346069336,
				-1,
				-1.2714831829071045
			],
			"type":"VEC3"
		},
		{
			"bufferView":5,
			"componentType":5126,
			"count":135,
			"type":"VEC3"
		},
		{
			"bufferView":6,
			"componentType":5126,
			"count":135,
			"type":"VEC2"
		},
		{
			"bufferView":7,
			"componentType":5123,
			"count":234,
			"type":"SCALAR"
		}
	],
	"bufferViews":[
		{
			"buffer":0,
			"byteLength":9216,
			"byteOffset":0,
			"target":34962
		},
		{
			"buffer":0,
			"byteLength":9216,
			"byteOffset":9216,
			"target":34962
		},
		{
			"buffer":0,
			"byteLength":6144,
			"byteOffset":18432,
			"target":34962
		},
		{
			"buffer":0,
			"byteLength":3024,
			"byteOffset":24576,
			"target":34963
		},
		{
			"buffer":0,
			"byteLength":1620,
			"byteOffset":27600,
			"target":34962
		},
		{
			"buffer":0,
			"byteLength":1620,
			"byteOffset":29220,
			"target":34962
		},
		{
			"buffer":0,
			"byteLength":1080,
			"byteOffset":30840,
			"target":34962
		},
		{
			"buffer":0,
			"byteLength":468,
			"byteOffset":31920,
			"target":34963
		}
	],
	"buffers":[
		{
			"byteLength":32388,
			"uri":"SpaceShip.bin"
		}
	]
}
